<svg width="484" height="281" viewBox="0 0 484 281" fill="none" xmlns="http://www.w3.org/2000/svg">
<path d="M196.523 189.748L176.193 230.069L213.804 280.217H188.728L149.847 212.873L110.966 145.53L33.2041 10.8423H96.9053L196.523 189.748Z" fill="#64E2D3"/>
<path d="M208.721 274.118L192.457 252.094L176.193 230.069M176.193 230.069L196.523 189.748L96.9053 10.8423H33.2041L110.966 145.53L149.847 212.873L188.728 280.217H213.804L176.193 230.069Z" stroke="white" stroke-width="0.677672"/>
<path d="M221.763 260.857C223.194 262.512 226.294 266.295 227.963 267.477C229.416 268.505 230.688 269.534 230.366 271.496C230.318 271.789 230.234 272.104 230.11 272.442C226.771 273.86 216.993 274.333 208.646 271.496C204.115 268.895 196.006 258.256 195.29 254.946L195.29 254.946C194.895 253.118 194.5 251.291 193.383 249.463C192.476 247.981 191.094 246.499 188.851 245.016C183.843 241.706 176.211 235.086 176.927 230.358C177.642 225.629 179.312 219.955 188.851 216.645H190.044L343.248 12.1982L395.768 12.1982C386.166 16.8156 219.682 204.439 217.47 211.224C215.62 216.898 213.177 232.441 213.177 235.086C213.177 233.762 216.039 232.328 217.47 231.776C217.501 233.379 217.567 235.327 217.675 237.451C217.737 238.665 217.813 239.936 217.905 241.234C218.014 242.791 218.146 244.385 218.303 245.962C218.479 247.744 218.688 249.505 218.931 251.163C219.197 252.973 219.504 254.662 219.858 256.128C220.385 258.311 221.015 260 221.763 260.857Z" fill="#64E2D3"/>
<path d="M190.044 216.645C188.613 218.3 186.371 223.36 188.851 230.358C194.098 235.086 197.198 237.924 200.299 238.633C203.399 239.342 208.646 239.815 210.077 238.633M190.044 216.645H188.851C179.312 219.955 177.642 225.629 176.927 230.358M190.044 216.645L343.248 12.1982C353.075 12.1982 376.454 12.1982 395.768 12.1982C386.166 16.8156 219.682 204.439 217.47 211.224C215.62 216.898 213.177 232.441 213.177 235.086M210.077 238.633C210.077 240.997 210.554 247.853 211.508 250.218C212.462 252.582 213.893 258.966 216.516 259.675M210.077 238.633L213.177 235.086M216.516 259.675C219.139 260.384 221.047 260.857 221.763 260.857M216.516 259.675C215.894 259.508 215.373 256.24 214.954 253.528M221.763 260.857C223.194 262.512 226.294 266.295 227.963 267.477C229.416 268.505 230.688 269.534 230.366 271.496M221.763 260.857C221.015 260 220.385 258.311 219.858 256.128M176.927 230.358C176.211 235.086 183.843 241.706 188.851 245.016C191.094 246.499 192.476 247.981 193.383 249.463M176.927 230.358C179.153 228.467 183.7 224.495 184.082 223.738C184.082 226.812 184.32 228.939 188.851 234.141C192.19 236.505 200.299 244.071 200.299 244.071C200.299 244.071 208.062 262.276 211.508 264.403C214.954 266.531 219.139 271.37 227.963 271.433M213.177 235.086C213.177 233.762 216.039 232.328 217.47 231.776C217.501 233.379 217.567 235.327 217.675 237.451M213.177 235.086C213.177 235.342 213.194 235.84 213.225 236.505M213.225 236.505C214.379 236.82 216.886 237.451 217.675 237.451M213.225 236.505C213.27 237.483 213.344 238.823 213.436 240.288M217.675 237.451C217.737 238.665 217.813 239.936 217.905 241.234M213.436 240.288C214.947 240.918 217.956 241.99 217.905 241.234M213.436 240.288C213.513 241.508 213.603 242.815 213.699 244.071M217.905 241.234C218.014 242.791 218.146 244.385 218.303 245.962M213.699 244.071C215.264 245.016 218.375 246.719 218.303 245.962M213.699 244.071C213.838 245.896 213.99 247.614 214.135 248.799M218.303 245.962C218.479 247.744 218.688 249.505 218.931 251.163M214.135 248.799C214.217 249.464 214.296 249.962 214.37 250.218C214.536 250.793 214.73 252.082 214.954 253.528M214.135 248.799C215.778 249.902 219.038 251.92 218.931 251.163M218.931 251.163C219.197 252.973 219.504 254.662 219.858 256.128M214.954 253.528C216.431 254.789 219.479 257.074 219.858 256.128M230.366 271.496C230.318 271.789 230.234 272.104 230.11 272.442C226.771 273.86 216.993 274.333 208.646 271.496C204.115 268.895 196.006 258.256 195.29 254.946C194.895 253.119 194.5 251.291 193.383 249.463M230.366 271.496C229.628 271.488 228.821 271.468 227.963 271.433M193.383 249.463C194.575 251.076 195.29 250.218 196.721 253.528C198.153 256.838 202.922 262.276 205.307 264.403C208.059 269.518 220.132 271.111 227.963 271.433" stroke="white" stroke-width="0.677672"/>
</svg>
