<svg width="485" height="281" viewBox="0 0 485 281" fill="none" xmlns="http://www.w3.org/2000/svg">
<path d="M26.4199 44.1773L4.73438 10.6326H33.8743H97.5755L197.193 189.538L176.863 229.86L209.9 273.908H230.738C232.093 271.74 223.622 265.776 223.622 261.371H247.002L252.762 273.908H282.58C280.411 272.011 276.368 263.63 275.803 261.371H285.63L295.456 280.007H214.474H189.398H49.4607L65.386 261.371H102.997L141.963 222.405L43.7005 44.1773H26.4199Z" fill="#8F9092"/>
<path d="M176.863 229.86L197.193 189.538L97.5755 10.6326H33.8743M176.863 229.86L214.474 280.007M176.863 229.86L193.127 251.884L209.391 273.908C215.152 273.908 225.859 273.908 230.738 273.908C232.093 271.74 223.622 265.776 223.622 261.371H247.002L252.762 273.908C254.795 273.908 270.924 273.908 282.58 273.908C280.411 272.011 276.368 263.63 275.803 261.371H285.63L295.456 280.007H214.474M33.8743 10.6326H4.73438L26.4199 44.1773H43.7005L141.963 222.405L102.997 261.371H65.386L49.4607 280.007H189.398M33.8743 10.6326L111.636 145.32L150.517 212.664L189.398 280.007M189.398 280.007H214.474" stroke="white" stroke-width="0.677672"/>
<path d="M4.7272 10.8429L1 5.42151H103.667L204.302 186.699L200.913 194.153L97.9071 10.8429H4.7272Z" fill="#8F9092" stroke="#FCFCFC" stroke-width="0.677672"/>
</svg>
