<svg width="336" height="195" viewBox="0 0 336 195" fill="none" xmlns="http://www.w3.org/2000/svg">
<path d="M186.298 181.013C187.285 182.155 189.425 184.765 190.577 185.581C191.579 186.291 192.457 187.001 192.235 188.355C192.202 188.557 192.144 188.774 192.058 189.007C189.754 189.986 183.006 190.313 177.246 188.355C174.119 186.56 168.524 179.218 168.03 176.934C167.757 175.673 167.485 174.412 166.713 173.15C166.088 172.127 165.134 171.104 163.586 170.082C160.13 167.797 154.864 163.229 155.358 159.966C155.851 156.703 157.003 152.787 163.586 150.503H164.409L239.035 113.325C232.02 112.624 192.276 99.2955 185.255 95.0867C178.234 90.8778 172.045 88.8605 173.797 74.2762C175.252 62.17 200.523 43.8011 213.314 36.1628L195.075 59.0776C194.53 60.3247 194 63.1462 196.245 64.4556C197.262 65.049 204.888 68.9622 214.252 73.8547C217.244 75.4179 220.414 77.081 223.602 78.7679C237.956 86.3626 252.688 94.4365 253.298 96.022C254.233 98.4537 261.014 118.079 264.288 127.588L192.235 150.503C188.007 151.387 179.089 153.935 177.246 157.05C175.403 160.166 177.137 164.099 178.234 165.676L180.373 163.229C180.373 162.315 182.348 161.326 183.336 160.945C183.357 162.051 183.403 163.395 183.477 164.861C183.52 165.698 183.573 166.576 183.636 167.471C183.711 168.546 183.802 169.646 183.91 170.734C184.032 171.964 184.176 173.179 184.344 174.324C184.527 175.572 184.739 176.738 184.984 177.75C185.347 179.256 185.782 180.421 186.298 181.013Z" fill="#E7E3E9"/>
<path d="M164.409 150.503C163.422 151.645 161.875 155.137 163.586 159.966C167.207 163.229 169.347 165.187 171.486 165.676C173.626 166.166 177.246 166.492 178.234 165.676M164.409 150.503H163.586C157.003 152.787 155.851 156.703 155.358 159.966M164.409 150.503L239.035 113.325C232.02 112.624 192.276 99.2955 185.255 95.0867C178.234 90.8778 172.045 88.8605 173.797 74.2762C175.252 62.17 200.523 43.8011 213.314 36.1628L195.075 59.0776C194.53 60.3247 194 63.1462 196.245 64.4556C197.262 65.049 204.888 68.9622 214.252 73.8547C217.244 75.4179 220.414 77.081 223.602 78.7679C237.956 86.3626 252.688 94.4365 253.298 96.022C254.233 98.4537 261.014 118.079 264.288 127.588L192.235 150.503C188.007 151.387 179.089 153.935 177.246 157.05C175.403 160.166 177.137 164.099 178.234 165.676M178.234 165.676C178.234 167.308 178.563 172.039 179.221 173.671C179.88 175.302 180.867 179.708 182.677 180.197M178.234 165.676L180.373 163.229M155.358 159.966C154.864 163.229 160.13 167.797 163.586 170.082C165.134 171.104 166.088 172.127 166.713 173.15M155.358 159.966C156.894 158.661 160.032 155.92 160.295 155.398C160.295 157.519 160.459 158.987 163.586 162.577C165.891 164.208 171.486 167.308 171.486 169.429C172.309 171.387 176.843 181.992 179.221 183.46C181.599 184.929 184.488 188.268 190.577 188.311M182.677 180.197C184.488 180.687 185.804 181.013 186.298 181.013M182.677 180.197C182.248 180.082 181.889 177.827 181.599 175.955M180.373 163.229C180.373 162.315 182.348 161.326 183.336 160.945C183.357 162.051 183.403 163.395 183.477 164.861M180.373 163.229C180.373 163.405 180.385 163.749 180.406 164.208M186.298 181.013C187.285 182.155 189.425 184.765 190.577 185.581C191.579 186.291 192.457 187.001 192.235 188.355M186.298 181.013C185.782 180.421 185.347 179.256 184.984 177.75M181.599 175.955C181.445 174.957 181.311 174.068 181.196 173.671C181.145 173.495 181.091 173.151 181.034 172.692M181.599 175.955C182.618 176.825 184.722 178.402 184.984 177.75M192.235 188.355C192.202 188.557 192.144 188.774 192.058 189.007C189.754 189.986 183.006 190.313 177.246 188.355C174.119 186.56 168.524 179.218 168.03 176.934C167.757 175.673 167.485 174.412 166.713 173.15M192.235 188.355C191.725 188.349 191.169 188.336 190.577 188.311M184.984 177.75C184.739 176.738 184.527 175.572 184.344 174.324M166.713 173.15C167.536 174.263 168.03 173.671 169.018 175.955C170.005 178.239 173.297 181.992 174.942 183.46C176.841 186.989 185.172 188.089 190.577 188.311M183.477 164.861C182.932 164.861 181.203 164.426 180.406 164.208M183.477 164.861C183.52 165.698 183.573 166.576 183.636 167.471M180.406 164.208C180.437 164.883 180.489 165.808 180.552 166.818M180.552 166.818C181.595 167.254 183.671 167.993 183.636 167.471M180.552 166.818C180.605 167.661 180.667 168.563 180.733 169.429M183.636 167.471C183.711 168.546 183.802 169.646 183.91 170.734M180.733 169.429C181.813 170.082 183.96 171.256 183.91 170.734M180.733 169.429C180.829 170.689 180.934 171.874 181.034 172.692M183.91 170.734C184.032 171.964 184.176 173.179 184.344 174.324M181.034 172.692C182.168 173.453 184.418 174.846 184.344 174.324" stroke="white" stroke-width="0.46765"/>
<path d="M275.744 88.3058C275.276 84.5646 285.097 54.1673 288.137 43.879C289.696 39.7398 290.363 35.8931 290.414 32.4216C279.142 28.1192 266.273 38.2672 261.247 43.879L254.934 88.3058C260.779 105.999 289.259 189.505 291.878 193.995H296.788C289.68 185.577 276.913 103.037 275.744 88.3058Z" fill="#E7E3E9" stroke="white" stroke-width="0.46765"/>
<path d="M294.685 33.1229C295.059 24.144 290.476 15.664 287.67 13.7154C288.839 13.7154 291.879 14.0895 294.685 15.586C294.685 9.69975 302.849 2.18064 313.157 1.12509C314.972 0.939224 316.854 0.95377 318.769 1.21293C320.235 1.41133 321.721 1.75307 323.211 2.258C337.708 7.16832 338.878 29.3817 326.485 39.2023C325.409 40.0552 324.315 40.7458 323.211 41.2932C321.741 42.0226 320.254 42.4977 318.769 42.7633C308.536 44.5933 298.414 36.4791 294.685 33.1229Z" fill="#E7E3E9"/>
<path d="M313.157 1.12509C316.361 0.796939 319.773 1.09348 323.211 2.258C337.708 7.16832 338.878 29.3817 326.485 39.2023C323.974 41.1917 321.368 42.2984 318.769 42.7633M313.157 1.12509C302.849 2.18064 294.685 9.69975 294.685 15.586C291.879 14.0895 288.839 13.7154 287.67 13.7154C290.476 15.664 295.059 24.144 294.685 33.1229C298.414 36.4791 308.536 44.5933 318.769 42.7633M313.157 1.12509C318.379 7.92963 326.812 25.7836 318.769 42.7633M318.769 1.21286C323.991 8.0174 331.255 24.3136 323.211 41.2933" stroke="white" stroke-width="0.46765"/>
<path d="M318.768 42.7633C326.812 25.7837 318.378 7.92969 313.156 1.12514C314.848 0.913598 318.339 0.634987 318.768 1.21291C323.99 8.01745 331.254 24.3137 323.211 41.2933C322.925 41.9149 320.13 42.5323 318.768 42.7633Z" fill="#64E2D3" stroke="white" stroke-width="0.46765"/>
</svg>
